
<svg xmlns="http://www.w3.org/2000/svg" xmlns:xlink="http://www.w3.org/1999/xlink" style="position:absolute; left: -9999px; top: -9999px;">
    <symbol id="search" viewBox="0 0 18 18">
        <path d="M8.25 14.25C11.5637 14.25 14.25 11.5637 14.25 8.25C14.25 4.93629 11.5637 2.25 8.25 2.25C4.93629 2.25 2.25 4.93629 2.25 8.25C2.25 11.5637 4.93629 14.25 8.25 14.25Z" stroke-linecap="round" stroke-linejoin="round"/>
        <path d="M15.7499 15.7499L12.4874 12.4874" stroke-linecap="round" stroke-linejoin="round"/>
    </symbol>
    <symbol id="arrow-down" viewBox="0 0 24 24">
        <path d="M8 11L12 15L16 11" stroke-linecap="round"/>
    </symbol>
    <symbol id="change" viewBox="0 0 18 18">
        <path d="M12.75 0.75L15.75 3.75L12.75 6.75" stroke-linecap="round" stroke-linejoin="round"/>
        <path d="M2.25 8.25V6.75C2.25 5.95435 2.56607 5.19129 3.12868 4.62868C3.69129 4.06607 4.45435 3.75 5.25 3.75H15.75" stroke-linecap="round" stroke-linejoin="round"/>
        <path d="M5.25 17.25L2.25 14.25L5.25 11.25" stroke-linecap="round" stroke-linejoin="round"/>
        <path d="M15.75 9.75V11.25C15.75 12.0456 15.4339 12.8087 14.8713 13.3713C14.3087 13.9339 13.5456 14.25 12.75 14.25H2.25" stroke-linecap="round" stroke-linejoin="round"/>
    </symbol>
    <symbol id="wallet" viewBox="0 0 18 18">
        <path d="M13.3199 3.95989V2.75677C13.3199 1.55761 13.0611 1.21165 11.5732 1.60405C10.4802 1.89241 4.08485 3.66541 4.08485 3.66541C2.11529 4.40773 1.81469 5.03953 1.81469 6.47917L1.79993 7.36297"  stroke-miterlimit="10" stroke-linejoin="round"/>
        <path d="M12.5011 11.5C11.9478 11.5 11.4999 11.0523 11.4999 10.5006C11.4999 9.9484 11.9484 9.5 12.5011 9.5C13.0509 9.5 13.4999 9.94788 13.4999 10.5006C13.4999 11.0528 13.0514 11.5 12.5011 11.5Z" />
        <rect x="1.7998" y="5.04974" width="14.4" height="11.15" rx="1.5" />
    </symbol>
    <symbol id="calendar" viewBox="0 0 18 18">
        <path d="M14.25 3H3.75C2.92157 3 2.25 3.67157 2.25 4.5V15C2.25 15.8284 2.92157 16.5 3.75 16.5H14.25C15.0784 16.5 15.75 15.8284 15.75 15V4.5C15.75 3.67157 15.0784 3 14.25 3Z" stroke-linecap="round" stroke-linejoin="round"/>
        <path d="M12 1.5V4.5" stroke-linecap="round" stroke-linejoin="round"/>
        <path d="M6 1.5V4.5" stroke-linecap="round" stroke-linejoin="round"/>
        <path d="M2.25 7.5H15.75" stroke-linecap="round" stroke-linejoin="round"/>
    </symbol>
    <symbol id="cancel" viewBox="0 0 18 18">
        <path d="M9 16.5C13.1421 16.5 16.5 13.1421 16.5 9C16.5 4.85786 13.1421 1.5 9 1.5C4.85786 1.5 1.5 4.85786 1.5 9C1.5 13.1421 4.85786 16.5 9 16.5Z" stroke-linecap="round" stroke-linejoin="round"/>
        <path d="M11.25 6.75L6.75 11.25" stroke-linecap="round" stroke-linejoin="round"/>
        <path d="M6.75 6.75L11.25 11.25" stroke-linecap="round" stroke-linejoin="round"/>
    </symbol>
    <symbol id="checkmark" viewBox="0 0 20 20">
        <path d="M16.6654 5L7.4987 14.1667L3.33203 10" stroke-width="2" stroke-linecap="round" stroke-linejoin="round"/>
    </symbol>
    <symbol id="radio" viewBox="0 0 12 12">
        <rect width="12" height="12" rx="6" />
    </symbol>
    <symbol id="dollar" viewBox="0 0 18 18">
        <path d="M9 0.75V17.25" stroke-linecap="round" stroke-linejoin="round"/>
        <path d="M12.75 3.75H7.125C6.42881 3.75 5.76113 4.02656 5.26884 4.51884C4.77656 5.01113 4.5 5.67881 4.5 6.375C4.5 7.07119 4.77656 7.73887 5.26884 8.23116C5.76113 8.72344 6.42881 9 7.125 9H10.875C11.5712 9 12.2389 9.27656 12.7312 9.76884C13.2234 10.2611 13.5 10.9288 13.5 11.625C13.5 12.3212 13.2234 12.9889 12.7312 13.4812C12.2389 13.9734 11.5712 14.25 10.875 14.25H4.5" stroke-linecap="round" stroke-linejoin="round"/>
    </symbol>
    <symbol id="copy" viewBox="0 0 18 18">
        <path d="M15 6.75H8.25C7.42157 6.75 6.75 7.42157 6.75 8.25V15C6.75 15.8284 7.42157 16.5 8.25 16.5H15C15.8284 16.5 16.5 15.8284 16.5 15V8.25C16.5 7.42157 15.8284 6.75 15 6.75Z" stroke-linecap="round" stroke-linejoin="round"/>
        <path d="M3.75 11.25H3C2.60218 11.25 2.22064 11.092 1.93934 10.8107C1.65804 10.5294 1.5 10.1478 1.5 9.75V3C1.5 2.60218 1.65804 2.22064 1.93934 1.93934C2.22064 1.65804 2.60218 1.5 3 1.5H9.75C10.1478 1.5 10.5294 1.65804 10.8107 1.93934C11.092 2.22064 11.25 2.60218 11.25 3V3.75" stroke-linecap="round" stroke-linejoin="round"/>
    </symbol>
    <symbol id="success" viewBox="0 0 18 18">
        <g clip-path="url(#clip0_12_194)">
        <circle cx="9" cy="9" r="9" fill="#2EB670"/>
        <path d="M13.5 6.375L7.3125 12.5625L4.5 9.75" stroke="white" stroke-linecap="round" stroke-linejoin="round"/>
        </g>
        <defs>
        <clipPath id="clip0_12_194">
        <rect width="18" height="18" fill="white"/>
        </clipPath>
        </defs>
    </symbol>
</svg>